<?xml version="1.0" encoding="UTF-8" standalone="no"?>
<!-- Created with Inkscape (http://www.inkscape.org/) -->

<svg
   xmlns:dc="http://purl.org/dc/elements/1.1/"
   xmlns:cc="http://creativecommons.org/ns#"
   xmlns:rdf="http://www.w3.org/1999/02/22-rdf-syntax-ns#"
   xmlns:svg="http://www.w3.org/2000/svg"
   xmlns="http://www.w3.org/2000/svg"
   xmlns:sodipodi="http://sodipodi.sourceforge.net/DTD/sodipodi-0.dtd"
   xmlns:inkscape="http://www.inkscape.org/namespaces/inkscape"
   width="11.67364"
   height="7.0871401"
   id="svg2992"
   version="1.1"
   inkscape:version="0.48.4 r9939"
   sodipodi:docname="Semibreve.svg">
  <defs
     id="defs2994" />
  <sodipodi:namedview
     id="base"
     pagecolor="#ffffff"
     bordercolor="#666666"
     borderopacity="1.0"
     inkscape:pageopacity="0.0"
     inkscape:pageshadow="2"
     inkscape:zoom="11.2"
     inkscape:cx="12.684125"
     inkscape:cy="0.46412332"
     inkscape:document-units="px"
     inkscape:current-layer="text3000"
     showgrid="false"
     fit-margin-top="0.2"
     fit-margin-left="0.2"
     fit-margin-right="0.1"
     fit-margin-bottom="0.2"
     showborder="true"
     inkscape:window-width="934"
     inkscape:window-height="640"
     inkscape:window-x="140"
     inkscape:window-y="28"
     inkscape:window-maximized="0" />
  <metadata
     id="metadata2997">
    <rdf:RDF>
      <cc:Work
         rdf:about="">
        <dc:format>image/svg+xml</dc:format>
        <dc:type
           rdf:resource="http://purl.org/dc/dcmitype/StillImage" />
        <dc:title />
      </cc:Work>
    </rdf:RDF>
  </metadata>
  <g
     inkscape:label="Layer 1"
     inkscape:groupmode="layer"
     id="layer1"
     transform="translate(-110.4117,-620.39808)">
    <g
       style="font-size:20px;font-style:normal;font-variant:normal;font-weight:normal;font-stretch:normal;line-height:125%;letter-spacing:0px;word-spacing:0px;fill:#000000;fill-opacity:1;stroke:none;font-family:Opus Text;-inkscape-font-specification:Opus Text"
       id="text3000">
      <path
         d="m 110.6117,623.94165 c 0,0.5204 0.14239,0.98406 0.42717,1.39098 0.28478,0.40693 0.67531,0.75675 1.17162,1.04948 0.49631,0.29272 1.082,0.51642 1.75707,0.6711 0.67506,0.15468 1.40314,0.23201 2.18423,0.23201 0.86251,0 1.65179,-0.0774 2.36783,-0.23201 0.71603,-0.15468 1.33026,-0.37429 1.84272,-0.65881 0.51244,-0.28453 0.91106,-0.63436 1.19583,-1.04948 0.28477,-0.41511 0.42716,-0.88287 0.42717,-1.40327 -10e-6,-0.47172 -0.16276,-0.91106 -0.48824,-1.31799 -0.3255,-0.40692 -0.75266,-0.76085 -1.28148,-1.06176 -0.52885,-0.30091 -1.12274,-0.53677 -1.78166,-0.7076 -0.65893,-0.1708 -1.33003,-0.25621 -2.01329,-0.25622 -0.73242,10e-6 -1.44846,0.0813 -2.1481,0.24393 -0.69966,0.16264 -1.32196,0.39043 -1.86694,0.68339 -0.54496,0.29298 -0.9802,0.6469 -1.30568,1.06177 -0.32551,0.41488 -0.48825,0.86637 -0.48825,1.35448 z m 8.73767,1.2692 c -10e-6,0.52039 -0.27262,0.93117 -0.81783,1.23233 -0.54522,0.30116 -1.23271,0.45175 -2.06245,0.45175 -0.40669,0 -0.8012,-0.11801 -1.18354,-0.35418 -0.38236,-0.23611 -0.72399,-0.53714 -1.0249,-0.90311 -0.30091,-0.36596 -0.54088,-0.77673 -0.71988,-1.23232 -0.17901,-0.45559 -0.26851,-0.90311 -0.26851,-1.34257 0,-1.25281 0.78083,-1.87922 2.3425,-1.87922 0.5045,0 0.98044,0.10165 1.42786,0.30501 0.44738,0.20334 0.84202,0.48812 1.18391,0.85432 0.34188,0.36622 0.61447,0.79338 0.81783,1.28149 0.20333,0.48812 0.305,1.01696 0.30501,1.5865 z"
         id="path3005"
         inkscape:connector-curvature="0" />
    </g>
  </g>
</svg>
